<svg xmlns="http://www.w3.org/2000/svg" version="1.1" xmlns:xlink="http://www.w3.org/1999/xlink" xmlns:svgjs="http://svgjs.dev/svgjs" width="1440" height="560" preserveAspectRatio="none" viewBox="0 0 1440 560"><g mask="url(&quot;#SvgjsMask1002&quot;)" fill="none"><rect width="1440" height="560" x="0" y="0" fill="url(&quot;#SvgjsRadialGradient1003&quot;)"></rect><path d="M1440 0L1394.29 0L1440 109.66z" fill="rgba(255, 255, 255, .1)"></path><path d="M1394.29 0L1440 109.66L1440 279.09000000000003L1180.24 0z" fill="rgba(255, 255, 255, .075)"></path><path d="M1180.24 0L1440 279.09000000000003L1440 438.18000000000006L1090.73 0z" fill="rgba(255, 255, 255, .05)"></path><path d="M1090.73 0L1440 438.18000000000006L1440 439.68000000000006L318.82000000000005 0z" fill="rgba(255, 255, 255, .025)"></path><path d="M0 560L551.71 560L0 497.21z" fill="rgba(0, 0, 0, .1)"></path><path d="M0 497.21L551.71 560L628.6 560L0 400.79999999999995z" fill="rgba(0, 0, 0, .075)"></path><path d="M0 400.8L628.6 560L1062.18 560L0 365.49z" fill="rgba(0, 0, 0, .05)"></path><path d="M0 365.49L1062.18 560L1205.98 560L0 254.08z" fill="rgba(0, 0, 0, .025)"></path></g><defs><mask id="SvgjsMask1002"><rect width="1440" height="560" fill="#ffffff"></rect></mask><radialGradient cx="50%" cy="50%" r="772.53" gradientUnits="userSpaceOnUse" id="SvgjsRadialGradient1003"><stop stop-color="rgba(11, 35, 61, 1)" offset="0.29"></stop><stop stop-color="rgba(0, 0, 0, 1)" offset="1"></stop></radialGradient></defs></svg>